<?xml version="1.0" encoding="UTF-8"?>
<svg width="79px" height="39px" viewBox="0 0 79 39" version="1.1" xmlns="http://www.w3.org/2000/svg" xmlns:xlink="http://www.w3.org/1999/xlink">
    <!-- Generator: Sketch 52.6 (67491) - http://www.bohemiancoding.com/sketch -->
    <title>Vísir Logo</title>
    <desc>Created with Sketch.</desc>
    <g id="Symbols" stroke="none" stroke-width="1" fill="none" fill-rule="evenodd">
        <g id="Blue-Menu" transform="translate(-681.000000, -9.000000)" fill="#FFFFFF">
            <g id="Vísir-Logo" transform="translate(681.000000, 9.000000)">
                <polyline id="Fill-1" points="0 16 7.24785976 16 8.71667346 28.7922308 14.3607827 16.0486397 21 16.0486397 9.66775377 38 3.59029759 38 0 16"></polyline>
                <polyline id="Fill-2" points="21.9216604 16 29 16 25.1804469 38 18 38 21.9216604 16"></polyline>
                <path d="M48,17.6997383 L46.1158804,22.4067942 C43.9391253,21.4622506 41.659968,21.026122 39.279218,21.1076452 C36.7527574,21.1076452 36.1759861,23.4408927 40.3684051,24.5006931 C47.6154858,25.9588724 48.1177828,32.3730943 44.2236658,36.7279543 C41.1690041,39.8049495 32.5599336,39.7093707 28,36.7279543 L29.819764,32.0184889 C32.6643596,33.3385207 35.0487524,33.959783 36.9765851,33.8878981 C41.361666,33.6039727 40.9063202,30.5438443 37.5517374,29.3519203 C32.1122781,27.8716534 29.992593,25.1958482 31.1995629,21.3277174 C31.8985692,17.3820793 35.5040981,15.6275254 42.0173639,16.0656619 C44.1410965,16.2291097 46.1353085,16.7744712 48,17.6997383" id="Fill-3"></path>
                <polyline id="Fill-4" points="25.1641322 0 30.4896184 0 34 6.4165883 28.2957304 13 23 13 27.403056 6.4165883 25.1641322 0"></polyline>
                <polyline id="Fill-5" points="51.8483502 16 59 16 55.1198756 38 48 38 51.8483502 16"></polyline>
                <path d="M62.8205347,16.3114834 L69.8912417,16.3114834 L69.2855868,20.1455823 C72.0692467,17.412375 75.3072492,16.0309106 79,16 L77.7351426,22.8034946 C72.6416373,22.7495992 69.5687396,23.2568495 68.5278082,24.3256417 L66.0727354,38 L59,38 L62.8205347,16.3114834" id="Fill-6"></path>
            </g>
        </g>
    </g>
</svg>